<svg xmlns="http://www.w3.org/2000/svg" xmlns:xlink="http://www.w3.org/1999/xlink" width="500" zoomAndPan="magnify" viewBox="0 0 375 374.999991" height="500" preserveAspectRatio="xMidYMid meet" version="1.0"><defs><g/></defs><g fill="#4fdf2b" fill-opacity="1"><g transform="translate(87.270977, 208.00484)"><g><path d="M 16.519531 -55.132812 C 13.707031 -54.835938 10.265625 -53.167969 7.054688 -50.503906 C 3.929688 -47.929688 1.5 -44.800781 0.570312 -42.121094 C -2.007812 -34.875 -0.78125 -26.953125 5.257812 -11.914062 C 5.765625 -10.710938 6.148438 -9.527344 6.441406 -8.429688 C 4.054688 -6.613281 2.429688 -4.878906 1.625 -3.253906 C 0.402344 -0.972656 0.359375 1.097656 1.519531 2.261719 C 2.007812 2.746094 2.640625 3.019531 3.335938 3.019531 C 3.761719 3.019531 4.160156 2.914062 4.542969 2.726562 C 4.730469 2.660156 6.421875 1.878906 7.414062 -0.445312 C 8.28125 -2.449219 8.363281 -4.984375 7.6875 -7.964844 C 11.785156 -10.960938 16.75 -13.222656 19.011719 -13.625 C 19.304688 -13.667969 19.519531 -13.960938 19.453125 -14.257812 C 19.410156 -14.554688 19.117188 -14.765625 18.820312 -14.722656 C 16.558594 -14.320312 11.574219 -12.082031 7.394531 -9.144531 C 7.117188 -10.160156 6.738281 -11.238281 6.292969 -12.335938 C 0.378906 -27.078125 -0.84375 -34.789062 1.605469 -41.761719 C 3.527344 -47.1875 11.257812 -53.484375 16.625 -54.011719 C 18.757812 -54.222656 20.300781 -53.546875 21.25 -51.960938 C 21.3125 -51.835938 21.441406 -51.75 21.585938 -51.710938 C 21.734375 -51.667969 21.882812 -51.6875 22.011719 -51.773438 C 22.136719 -51.835938 22.222656 -51.960938 22.265625 -52.109375 C 22.304688 -52.257812 22.285156 -52.40625 22.199219 -52.53125 C 21.039062 -54.476562 19.074219 -55.382812 16.519531 -55.132812 Z M 2.621094 -2.746094 C 3.273438 -4.078125 4.6875 -5.640625 6.71875 -7.222656 C 7.351562 -3.992188 6.863281 -1.941406 6.359375 -0.78125 C 5.511719 1.097656 4.117188 1.710938 4.097656 1.710938 L 4.054688 1.730469 C 3.441406 2.050781 2.765625 1.941406 2.300781 1.480469 C 1.519531 0.675781 1.625 -0.910156 2.621094 -2.746094 Z M 2.621094 -2.746094 "/></g></g></g><g fill="#4fdf2b" fill-opacity="1"><g transform="translate(106.257925, 208.00484)"><g><path d="M 10.835938 -14.53125 C 10.5625 -14.636719 10.222656 -14.492188 10.140625 -14.195312 C 10.097656 -14.109375 7.011719 -5.789062 2.429688 -7.117188 C 1.226562 -7.457031 0.445312 -8.195312 0.125 -9.273438 C -0.273438 -10.539062 -0.0195312 -11.996094 0.273438 -13.03125 C 2.492188 -13.054688 4.222656 -14.152344 4.902344 -15.96875 C 5.492188 -17.59375 4.796875 -18.207031 4.476562 -18.398438 C 3.570312 -18.925781 2.070312 -18.292969 0.910156 -16.898438 C 0.402344 -16.285156 -0.125 -15.273438 -0.507812 -14.195312 C -0.675781 -14.214844 -0.824219 -14.238281 -0.972656 -14.277344 C -1.121094 -14.300781 -1.265625 -14.277344 -1.394531 -14.195312 C -1.519531 -14.132812 -1.605469 -14.003906 -1.648438 -13.855469 C -1.667969 -13.707031 -1.648438 -13.5625 -1.5625 -13.433594 C -1.480469 -13.308594 -1.371094 -13.222656 -1.226562 -13.203125 C -1.097656 -13.160156 -0.972656 -13.136719 -0.84375 -13.117188 C -1.140625 -11.996094 -1.394531 -10.390625 -0.949219 -8.957031 C -0.484375 -7.476562 0.527344 -6.507812 2.113281 -6.042969 C 2.554688 -5.914062 3 -5.851562 3.441406 -5.851562 C 8.21875 -5.851562 11.046875 -13.496094 11.175781 -13.816406 C 11.28125 -14.109375 11.132812 -14.425781 10.835938 -14.53125 Z M 3.738281 -17.46875 C 3.824219 -17.46875 3.886719 -17.449219 3.929688 -17.425781 C 4.054688 -17.363281 4.078125 -16.960938 3.84375 -16.347656 C 3.378906 -15.082031 2.21875 -14.300781 0.65625 -14.171875 C 0.992188 -14.996094 1.394531 -15.738281 1.773438 -16.179688 C 2.492188 -17.066406 3.296875 -17.46875 3.738281 -17.46875 Z M 3.738281 -17.46875 "/></g></g></g><g fill="#4fdf2b" fill-opacity="1"><g transform="translate(116.902441, 208.00484)"><g><path d="M -0.0625 -13.6875 C 0.230469 -13.601562 0.550781 -13.773438 0.632812 -14.046875 C 1.773438 -17.59375 2.554688 -20.574219 2.976562 -22.855469 C 4.308594 -22.011719 5.957031 -21.925781 7.878906 -22.558594 C 8.46875 -22.75 8.894531 -22.75 9.1875 -22.539062 C 10.203125 -21.777344 10.097656 -18.144531 9.96875 -13.941406 C 9.90625 -11.851562 9.820312 -9.464844 9.863281 -6.863281 C 9.886719 -3.738281 10.539062 -2.113281 11.851562 -1.878906 C 11.933594 -1.859375 12.019531 -1.859375 12.125 -1.859375 C 14.914062 -1.859375 18.96875 -8.933594 20.847656 -14.027344 C 20.890625 -14.171875 20.890625 -14.320312 20.828125 -14.46875 C 20.765625 -14.597656 20.660156 -14.703125 20.511719 -14.742188 C 20.214844 -14.847656 19.898438 -14.703125 19.792969 -14.425781 C 17.660156 -8.574219 13.667969 -2.703125 12.039062 -2.976562 C 11.785156 -3.019531 11.003906 -3.421875 10.960938 -6.886719 C 10.941406 -9.464844 11.003906 -11.828125 11.089844 -13.921875 C 11.238281 -18.988281 11.34375 -22.328125 9.84375 -23.445312 C 9.25 -23.867188 8.492188 -23.933594 7.539062 -23.617188 C 5.746094 -23.023438 4.246094 -23.171875 3.167969 -24.082031 C 3.464844 -26.402344 3.253906 -27.777344 2.535156 -28.285156 C 2.15625 -28.558594 1.667969 -28.539062 1.265625 -28.242188 C 0.507812 -27.671875 0.507812 -26.128906 1.246094 -24.734375 C 1.371094 -24.480469 1.605469 -24.082031 1.984375 -23.679688 C 1.625 -21.375 0.824219 -18.25 -0.421875 -14.40625 C -0.507812 -14.109375 -0.359375 -13.792969 -0.0625 -13.6875 Z M 1.921875 -27.332031 C 2.007812 -27.207031 2.238281 -26.761719 2.15625 -25.367188 C 1.667969 -26.382812 1.773438 -27.207031 1.921875 -27.332031 Z M 1.921875 -27.332031 "/></g></g></g><g fill="#4fdf2b" fill-opacity="1"><g transform="translate(137.114353, 208.00484)"><g><path d="M 1.308594 -9.464844 L 1.351562 -9.464844 C 2.851562 -9.84375 4.332031 -11.722656 4.394531 -11.808594 C 4.414062 -11.828125 5.007812 -12.589844 5.660156 -12.484375 C 6.253906 -12.398438 6.863281 -11.617188 7.394531 -10.285156 C 7.730469 -9.398438 8.070312 -8.109375 8.34375 -6.570312 C 5.640625 -2.492188 3.484375 2.40625 2.894531 5.9375 C 1.984375 11.195312 3.230469 14.492188 4.859375 15.398438 C 5.195312 15.589844 5.554688 15.695312 5.894531 15.695312 C 6.421875 15.695312 6.90625 15.484375 7.351562 15.101562 L 7.371094 15.082031 C 9.96875 12.566406 10.414062 6.675781 10.328125 2.195312 C 10.265625 -0.632812 9.992188 -3.632812 9.527344 -6.273438 C 11.785156 -9.589844 14.214844 -12.019531 16.539062 -13.285156 C 16.667969 -13.371094 16.773438 -13.476562 16.792969 -13.625 C 16.835938 -13.773438 16.835938 -13.921875 16.75 -14.046875 C 16.601562 -14.320312 16.265625 -14.40625 16.011719 -14.277344 C 13.730469 -13.03125 11.40625 -10.792969 9.230469 -7.816406 C 8.976562 -9 8.703125 -9.96875 8.429688 -10.6875 C 7.730469 -12.460938 6.863281 -13.433594 5.828125 -13.582031 C 4.5 -13.773438 3.570312 -12.546875 3.527344 -12.503906 C 3.167969 -12.039062 2.027344 -10.792969 1.097656 -10.539062 C 0.632812 -10.476562 0.0195312 -10.457031 -0.230469 -10.898438 C -0.570312 -11.53125 -0.230469 -12.78125 0.527344 -13.644531 C 0.929688 -14.132812 2.089844 -15.144531 3.738281 -14.46875 C 4.035156 -14.363281 4.351562 -14.492188 4.476562 -14.785156 C 4.582031 -15.0625 4.457031 -15.378906 4.160156 -15.503906 C 2.554688 -16.160156 0.886719 -15.738281 -0.316406 -14.386719 C -1.414062 -13.136719 -1.796875 -11.40625 -1.183594 -10.351562 C -0.929688 -9.90625 -0.253906 -9.167969 1.308594 -9.464844 Z M 3.992188 6.105469 C 4.5 3.125 6.316406 -1.160156 8.617188 -4.902344 C 9.527344 1.289062 9.714844 11.238281 6.613281 14.277344 C 6.210938 14.617188 5.828125 14.660156 5.40625 14.425781 C 4.117188 13.707031 3.210938 10.605469 3.992188 6.105469 Z M 3.992188 6.105469 "/></g></g></g><g fill="#4fdf2b" fill-opacity="1"><g transform="translate(153.461288, 208.00484)"><g><path d="M 8.175781 -13.519531 C 8.28125 -13.792969 8.152344 -14.109375 7.859375 -14.238281 C 7.582031 -14.34375 7.246094 -14.214844 7.140625 -13.921875 C 5.9375 -10.960938 4.582031 -9.421875 3.378906 -9.738281 C 2.492188 -9.96875 1.648438 -11.238281 1.160156 -13.160156 C 0.589844 -15.292969 0.527344 -16.792969 0.800781 -16.558594 C 0.84375 -17.023438 0.65625 -17.277344 0.484375 -17.40625 C 0.105469 -17.660156 -0.339844 -17.488281 -0.421875 -17.449219 C -0.695312 -17.320312 -0.824219 -17.003906 -0.695312 -16.730469 C -0.632812 -16.582031 -0.507812 -16.453125 -0.339844 -16.414062 C -0.589844 -16.539062 -0.484375 -14.933594 0.125 -12.714844 C 0.738281 -10.433594 1.816406 -9 3.105469 -8.660156 C 3.296875 -8.617188 3.484375 -8.574219 3.675781 -8.574219 C 4.816406 -8.574219 6.527344 -9.441406 8.175781 -13.519531 Z M -0.527344 -18.925781 L -0.507812 -18.925781 C -0.507812 -18.90625 -0.484375 -18.90625 -0.484375 -18.882812 C -0.378906 -18.777344 -0.230469 -18.714844 -0.0625 -18.714844 C 0.0625 -18.714844 0.210938 -18.757812 0.296875 -18.839844 C 0.421875 -18.949219 0.484375 -19.09375 0.484375 -19.242188 C 0.484375 -19.390625 0.445312 -19.519531 0.339844 -19.644531 C 0.316406 -19.664062 0.296875 -19.6875 0.253906 -19.730469 C 0.105469 -19.875 -0.105469 -20.066406 -0.0859375 -20.425781 C -0.0859375 -20.722656 -0.316406 -20.996094 -0.632812 -20.996094 C -0.949219 -20.996094 -1.203125 -20.765625 -1.203125 -20.46875 C -1.226562 -19.625 -0.738281 -19.136719 -0.527344 -18.925781 Z M -0.527344 -18.925781 "/></g></g></g><g fill="#4fdf2b" fill-opacity="1"><g transform="translate(161.233474, 208.00484)"><g/></g></g><g fill="#4fdf2b" fill-opacity="1"><g transform="translate(177.791609, 208.00484)"><g><path d="M 7.710938 -16.476562 C 8.40625 -16.371094 8.511719 -15.039062 8.511719 -14.46875 C 8.660156 -6.546875 9.800781 -5.195312 10.878906 -4.921875 C 11.003906 -4.902344 11.109375 -4.878906 11.238281 -4.878906 C 12.949219 -4.878906 14.742188 -8.027344 16.476562 -11.089844 C 17.066406 -12.101562 17.59375 -13.074219 18.058594 -13.730469 C 18.230469 -13.984375 18.164062 -14.320312 17.914062 -14.511719 C 17.785156 -14.597656 17.636719 -14.617188 17.488281 -14.597656 C 17.34375 -14.574219 17.214844 -14.492188 17.128906 -14.363281 C 16.667969 -13.667969 16.097656 -12.671875 15.503906 -11.640625 C 14.890625 -10.539062 14.027344 -9.039062 13.203125 -7.859375 C 12.039062 -6.1875 11.449219 -5.9375 11.152344 -6 C 10.835938 -6.082031 9.757812 -6.929688 9.609375 -14.492188 C 9.589844 -16.941406 8.511719 -17.46875 7.878906 -17.574219 C 6.125 -17.847656 3.613281 -15.417969 2.621094 -12.441406 C 2.324219 -11.597656 2.113281 -11.175781 1.964844 -10.960938 C 1.921875 -11.089844 1.878906 -11.257812 1.859375 -11.386719 C 1.667969 -13.03125 1.519531 -14.660156 1.414062 -15.863281 C 1.796875 -16.984375 1.667969 -17.914062 1.414062 -18.3125 C 1.160156 -18.695312 0.824219 -18.652344 0.71875 -18.628906 C 0.613281 -18.609375 0.273438 -18.503906 0.210938 -18.019531 C 0.167969 -17.785156 0.191406 -17.128906 0.273438 -16.011719 C 0.125 -15.632812 -0.0859375 -15.25 -0.359375 -14.847656 C -0.445312 -14.742188 -0.484375 -14.597656 -0.464844 -14.449219 C -0.445312 -14.300781 -0.359375 -14.171875 -0.230469 -14.089844 C -0.105469 -14.003906 0.0429688 -13.960938 0.191406 -13.984375 C 0.273438 -14.003906 0.378906 -14.046875 0.445312 -14.109375 C 0.570312 -12.886719 0.695312 -11.722656 0.761719 -11.257812 L 0.761719 -11.214844 C 0.824219 -10.773438 1.078125 -9.738281 1.859375 -9.675781 C 2.535156 -9.609375 3.0625 -10.308594 3.652344 -12.082031 C 4.519531 -14.617188 6.632812 -16.644531 7.710938 -16.476562 Z M 7.710938 -16.476562 "/></g></g></g><g fill="#4fdf2b" fill-opacity="1"><g transform="translate(195.405747, 208.00484)"><g><path d="M 14.511719 -14.828125 C 14.363281 -14.871094 14.109375 -14.890625 14.046875 -14.597656 C 14.027344 -14.574219 13.03125 -11.425781 10.625 -9.210938 C 10.054688 -8.679688 9.570312 -8.492188 9.1875 -8.640625 C 8.109375 -9.0625 7.351562 -12.125 7.140625 -14.914062 C 7.117188 -15.207031 7.054688 -16.136719 6.359375 -16.371094 C 5.472656 -16.667969 4.5 -15.632812 2.726562 -13.625 L 2.535156 -13.414062 C 1.753906 -12.527344 0.632812 -12.125 0.0195312 -12.25 C -0.0859375 -12.273438 -0.210938 -12.316406 -0.230469 -12.398438 C -0.296875 -12.566406 -0.191406 -13.074219 0.589844 -13.921875 C 3.0625 -16.667969 6.335938 -17.066406 8.492188 -16.242188 C 8.765625 -16.136719 9.105469 -16.285156 9.210938 -16.558594 C 9.316406 -16.855469 9.167969 -17.171875 8.894531 -17.277344 C 6.378906 -18.230469 2.597656 -17.808594 -0.230469 -14.679688 C -1.160156 -13.644531 -1.519531 -12.757812 -1.289062 -12.039062 C -1.140625 -11.597656 -0.761719 -11.257812 -0.210938 -11.152344 C 0.738281 -10.960938 2.261719 -11.425781 3.378906 -12.671875 L 3.570312 -12.886719 C 4.308594 -13.730469 5.511719 -15.101562 5.957031 -15.292969 C 6 -15.207031 6.019531 -15.082031 6.042969 -14.828125 C 6.148438 -13.351562 6.652344 -8.449219 8.789062 -7.605469 C 9 -7.519531 9.230469 -7.476562 9.464844 -7.476562 C 10.074219 -7.476562 10.710938 -7.773438 11.386719 -8.386719 C 14.046875 -10.835938 14.808594 -14.34375 14.828125 -14.492188 C 14.847656 -14.742188 14.660156 -14.828125 14.511719 -14.828125 Z M 14.511719 -14.828125 "/></g></g></g><g fill="#4fdf2b" fill-opacity="1"><g transform="translate(209.74628, 208.00484)"><g><path d="M -0.316406 -14.871094 C -0.359375 -14.742188 -0.359375 -14.574219 -0.273438 -14.449219 C -0.210938 -14.320312 -0.0859375 -14.238281 0.0429688 -14.171875 C 0.230469 -14.132812 0.402344 -14.171875 0.550781 -14.277344 C 0.695312 -13.960938 0.84375 -13.6875 1.035156 -13.414062 C 2.261719 -11.46875 3.191406 -10.605469 4.097656 -10.605469 C 4.160156 -10.605469 4.222656 -10.605469 4.265625 -10.625 C 5.238281 -10.730469 5.703125 -11.828125 5.976562 -12.652344 C 7.078125 -15.988281 9.886719 -21.800781 12.421875 -23.59375 C 12.671875 -23.761719 12.714844 -24.101562 12.546875 -24.355469 C 12.378906 -24.609375 12.019531 -24.671875 11.765625 -24.503906 C 8.746094 -22.347656 5.851562 -15.820312 4.921875 -12.992188 C 4.542969 -11.851562 4.222656 -11.746094 4.140625 -11.722656 C 4.035156 -11.703125 3.378906 -11.765625 1.964844 -14.003906 C 1.625 -14.554688 1.332031 -15.167969 1.097656 -15.800781 C 2.007812 -19.117188 2.175781 -21.121094 1.605469 -21.945312 C 1.414062 -22.242188 1.140625 -22.390625 0.824219 -22.410156 C 0.589844 -22.433594 0.253906 -22.347656 -0.0195312 -21.90625 C -0.527344 -21.039062 -0.886719 -18.503906 -0.0625 -15.777344 C -0.148438 -15.484375 -0.230469 -15.1875 -0.316406 -14.871094 Z M 0.78125 -20.996094 C 0.84375 -20.617188 0.867188 -19.855469 0.589844 -18.417969 C 0.507812 -19.558594 0.632812 -20.488281 0.78125 -20.996094 Z M 0.78125 -20.996094 "/></g></g></g><g fill="#4fdf2b" fill-opacity="1"><g transform="translate(221.510165, 208.00484)"><g><path d="M 14.511719 -14.828125 C 14.363281 -14.871094 14.109375 -14.890625 14.046875 -14.597656 C 14.027344 -14.574219 13.03125 -11.425781 10.625 -9.210938 C 10.054688 -8.679688 9.570312 -8.492188 9.1875 -8.640625 C 8.109375 -9.0625 7.351562 -12.125 7.140625 -14.914062 C 7.117188 -15.207031 7.054688 -16.136719 6.359375 -16.371094 C 5.472656 -16.667969 4.5 -15.632812 2.726562 -13.625 L 2.535156 -13.414062 C 1.753906 -12.527344 0.632812 -12.125 0.0195312 -12.25 C -0.0859375 -12.273438 -0.210938 -12.316406 -0.230469 -12.398438 C -0.296875 -12.566406 -0.191406 -13.074219 0.589844 -13.921875 C 3.0625 -16.667969 6.335938 -17.066406 8.492188 -16.242188 C 8.765625 -16.136719 9.105469 -16.285156 9.210938 -16.558594 C 9.316406 -16.855469 9.167969 -17.171875 8.894531 -17.277344 C 6.378906 -18.230469 2.597656 -17.808594 -0.230469 -14.679688 C -1.160156 -13.644531 -1.519531 -12.757812 -1.289062 -12.039062 C -1.140625 -11.597656 -0.761719 -11.257812 -0.210938 -11.152344 C 0.738281 -10.960938 2.261719 -11.425781 3.378906 -12.671875 L 3.570312 -12.886719 C 4.308594 -13.730469 5.511719 -15.101562 5.957031 -15.292969 C 6 -15.207031 6.019531 -15.082031 6.042969 -14.828125 C 6.148438 -13.351562 6.652344 -8.449219 8.789062 -7.605469 C 9 -7.519531 9.230469 -7.476562 9.464844 -7.476562 C 10.074219 -7.476562 10.710938 -7.773438 11.386719 -8.386719 C 14.046875 -10.835938 14.808594 -14.34375 14.828125 -14.492188 C 14.847656 -14.742188 14.660156 -14.828125 14.511719 -14.828125 Z M 14.511719 -14.828125 "/></g></g></g><g fill="#4fdf2b" fill-opacity="1"><g transform="translate(235.850698, 208.00484)"><g><path d="M -0.0625 -13.6875 C 0.230469 -13.601562 0.550781 -13.773438 0.632812 -14.046875 C 1.773438 -17.59375 2.554688 -20.574219 2.976562 -22.855469 C 4.308594 -22.011719 5.957031 -21.925781 7.878906 -22.558594 C 8.46875 -22.75 8.894531 -22.75 9.1875 -22.539062 C 10.203125 -21.777344 10.097656 -18.144531 9.96875 -13.941406 C 9.90625 -11.851562 9.820312 -9.464844 9.863281 -6.863281 C 9.886719 -3.738281 10.539062 -2.113281 11.851562 -1.878906 C 11.933594 -1.859375 12.019531 -1.859375 12.125 -1.859375 C 14.914062 -1.859375 18.96875 -8.933594 20.847656 -14.027344 C 20.890625 -14.171875 20.890625 -14.320312 20.828125 -14.46875 C 20.765625 -14.597656 20.660156 -14.703125 20.511719 -14.742188 C 20.214844 -14.847656 19.898438 -14.703125 19.792969 -14.425781 C 17.660156 -8.574219 13.667969 -2.703125 12.039062 -2.976562 C 11.785156 -3.019531 11.003906 -3.421875 10.960938 -6.886719 C 10.941406 -9.464844 11.003906 -11.828125 11.089844 -13.921875 C 11.238281 -18.988281 11.34375 -22.328125 9.84375 -23.445312 C 9.25 -23.867188 8.492188 -23.933594 7.539062 -23.617188 C 5.746094 -23.023438 4.246094 -23.171875 3.167969 -24.082031 C 3.464844 -26.402344 3.253906 -27.777344 2.535156 -28.285156 C 2.15625 -28.558594 1.667969 -28.539062 1.265625 -28.242188 C 0.507812 -27.671875 0.507812 -26.128906 1.246094 -24.734375 C 1.371094 -24.480469 1.605469 -24.082031 1.984375 -23.679688 C 1.625 -21.375 0.824219 -18.25 -0.421875 -14.40625 C -0.507812 -14.109375 -0.359375 -13.792969 -0.0625 -13.6875 Z M 1.921875 -27.332031 C 2.007812 -27.207031 2.238281 -26.761719 2.15625 -25.367188 C 1.667969 -26.382812 1.773438 -27.207031 1.921875 -27.332031 Z M 1.921875 -27.332031 "/></g></g></g><g fill="#4fdf2b" fill-opacity="1"><g transform="translate(256.062611, 208.00484)"><g><path d="M -0.0625 -13.6875 C 0.230469 -13.601562 0.550781 -13.773438 0.632812 -14.046875 C 1.773438 -17.59375 2.554688 -20.574219 2.976562 -22.855469 C 4.308594 -22.011719 5.957031 -21.925781 7.878906 -22.558594 C 8.46875 -22.75 8.894531 -22.75 9.1875 -22.539062 C 10.203125 -21.777344 10.097656 -18.144531 9.96875 -13.941406 C 9.90625 -11.851562 9.820312 -9.464844 9.863281 -6.863281 C 9.886719 -3.738281 10.539062 -2.113281 11.851562 -1.878906 C 11.933594 -1.859375 12.019531 -1.859375 12.125 -1.859375 C 14.914062 -1.859375 18.96875 -8.933594 20.847656 -14.027344 C 20.890625 -14.171875 20.890625 -14.320312 20.828125 -14.46875 C 20.765625 -14.597656 20.660156 -14.703125 20.511719 -14.742188 C 20.214844 -14.847656 19.898438 -14.703125 19.792969 -14.425781 C 17.660156 -8.574219 13.667969 -2.703125 12.039062 -2.976562 C 11.785156 -3.019531 11.003906 -3.421875 10.960938 -6.886719 C 10.941406 -9.464844 11.003906 -11.828125 11.089844 -13.921875 C 11.238281 -18.988281 11.34375 -22.328125 9.84375 -23.445312 C 9.25 -23.867188 8.492188 -23.933594 7.539062 -23.617188 C 5.746094 -23.023438 4.246094 -23.171875 3.167969 -24.082031 C 3.464844 -26.402344 3.253906 -27.777344 2.535156 -28.285156 C 2.15625 -28.558594 1.667969 -28.539062 1.265625 -28.242188 C 0.507812 -27.671875 0.507812 -26.128906 1.246094 -24.734375 C 1.371094 -24.480469 1.605469 -24.082031 1.984375 -23.679688 C 1.625 -21.375 0.824219 -18.25 -0.421875 -14.40625 C -0.507812 -14.109375 -0.359375 -13.792969 -0.0625 -13.6875 Z M 1.921875 -27.332031 C 2.007812 -27.207031 2.238281 -26.761719 2.15625 -25.367188 C 1.667969 -26.382812 1.773438 -27.207031 1.921875 -27.332031 Z M 1.921875 -27.332031 "/></g></g></g><g fill="#4fdf2b" fill-opacity="1"><g transform="translate(276.274524, 208.00484)"><g><path d="M 3.125 -6.675781 C 3.441406 -6.675781 3.84375 -6.78125 4.265625 -7.097656 C 5.152344 -7.753906 5.871094 -8.746094 6.378906 -9.992188 C 6.90625 -9.90625 7.351562 -9.886719 7.625 -9.949219 C 8.027344 -10.011719 10.773438 -10.5 11.957031 -13.898438 C 12.0625 -14.195312 11.890625 -14.53125 11.597656 -14.636719 C 11.300781 -14.742188 10.984375 -14.574219 10.878906 -14.277344 C 9.886719 -11.40625 7.5625 -11.089844 7.476562 -11.089844 L 7.433594 -11.089844 L 7.394531 -11.070312 C 7.265625 -11.046875 7.035156 -11.046875 6.757812 -11.070312 C 7.160156 -12.527344 7.328125 -14.238281 7.203125 -16.054688 C 7.078125 -17.722656 6.335938 -18.882812 5.175781 -19.199219 C 3.675781 -19.625 1.878906 -18.589844 0.378906 -16.433594 C -0.421875 -15.335938 -0.445312 -14.171875 0.296875 -13.097656 C 0.359375 -12.992188 0.445312 -12.90625 0.527344 -12.800781 C 0.378906 -11.554688 0.570312 -10.5625 0.589844 -10.414062 C 0.675781 -9.886719 1.160156 -7.351562 2.554688 -6.78125 C 2.703125 -6.71875 2.894531 -6.675781 3.125 -6.675781 Z M 1.605469 -11.828125 C 2.683594 -11.089844 4.054688 -10.539062 5.238281 -10.222656 C 4.816406 -9.273438 4.265625 -8.511719 3.589844 -8.003906 C 3.230469 -7.753906 3.042969 -7.816406 2.976562 -7.835938 C 2.386719 -8.089844 1.878906 -9.632812 1.710938 -10.605469 L 1.710938 -10.625 C 1.710938 -10.644531 1.605469 -11.132812 1.605469 -11.828125 Z M 1.730469 -13.179688 C 1.902344 -14.027344 2.261719 -14.914062 3 -15.589844 C 3.230469 -15.800781 3.253906 -16.160156 3.019531 -16.390625 C 2.808594 -16.625 2.449219 -16.644531 2.21875 -16.414062 C 1.605469 -15.84375 1.183594 -15.167969 0.929688 -14.46875 C 0.867188 -14.890625 0.992188 -15.335938 1.308594 -15.777344 C 2.492188 -17.46875 3.886719 -18.378906 4.859375 -18.101562 C 5.535156 -17.914062 5.976562 -17.128906 6.0625 -15.96875 C 6.1875 -14.257812 6.019531 -12.652344 5.640625 -11.300781 C 4.351562 -11.617188 2.726562 -12.292969 1.730469 -13.179688 Z M 1.730469 -13.179688 "/></g></g></g></svg>